<?xml version="1.0" encoding="UTF-8" standalone="no"?><svg width="2819" height="2819" viewBox="0 0 2819 2819" fill="none" xmlns="http://www.w3.org/2000/svg">
<g clip-path="url(#clip0_10575_13257)">
<path fill-rule="evenodd" clip-rule="evenodd" d="M1519.72 722.375L2041.58 1544.92C2107.42 1356.69 2125.92 1149.31 2122.68 950.641C1917.5 892.447 1710.79 818.97 1519.72 722.375ZM1275.41 721.303C1087.36 815.847 889.025 884.935 678.151 930.635C674.708 1138.82 699.848 1353.85 779.219 1551.26L1275.41 721.303Z" fill="#F9F9F9" stroke="#F9F9F9" stroke-width="0.164321"/>
<path fill-rule="evenodd" clip-rule="evenodd" d="M1397.17 682.057L772.559 1726.86C642.354 1498.87 580.925 1213.72 595.538 865.364C862.917 813.888 1129.61 721.946 1395.12 561.465C1617.48 699.077 1891.73 806.578 2205.47 891.165C2219.09 1256.44 2161.41 1521.95 2057.22 1722.4L1397.17 682.057ZM1026.84 1707.41C1046.26 1707.72 1062.26 1722.84 1062.57 1741.19C1062.88 1759.52 1047.39 1774.14 1027.96 1773.83C1008.55 1773.52 992.552 1758.4 992.241 1740.06C991.929 1721.71 1007.42 1707.09 1026.84 1707.41ZM1835.69 1799.56C1855.1 1799.87 1871.1 1814.99 1871.41 1833.33C1871.72 1851.68 1856.23 1866.29 1836.81 1865.98C1817.39 1865.67 1801.39 1850.55 1801.08 1832.2C1800.77 1813.86 1816.26 1799.25 1835.69 1799.56ZM1671.33 1507.29C1690.76 1507.6 1706.76 1522.72 1707.07 1541.08C1707.38 1559.41 1691.89 1574.03 1672.46 1573.72C1653.05 1573.41 1637.05 1558.28 1636.74 1539.95C1636.43 1521.6 1651.92 1506.98 1671.33 1507.29ZM1457.96 1203.48C1477.37 1203.79 1493.37 1218.91 1493.68 1237.26C1493.99 1255.61 1478.5 1270.23 1459.09 1269.92C1439.66 1269.61 1423.66 1254.48 1423.35 1236.14C1423.04 1217.79 1438.53 1203.17 1457.96 1203.48ZM1200.68 1424.16C1220.1 1424.47 1236.09 1439.59 1236.4 1457.92C1236.72 1476.26 1221.22 1490.88 1201.81 1490.57C1182.38 1490.26 1166.39 1475.13 1166.08 1456.8C1165.77 1438.46 1181.25 1423.85 1200.68 1424.16ZM1443.45 2070.13L1446.7 2261.44C1655.49 2161.57 1847.18 2037.82 1985.94 1839.97L1400.98 906.87L841.949 1834.15C978.264 2021.34 1168.59 2163.63 1407.82 2265.25L1404.49 2069.51L1371.78 2068.99L1333.09 2068.37L1332.82 2068.37L1330.43 1927.35L1228.66 1925.71L1189.71 1925.09L1189.09 1888.29L1186.94 1761.57L1093.61 1760.08C1085.66 1786.81 1059.68 1806.01 1028.5 1805.51C990.549 1804.9 959.307 1775.35 958.699 1739.52C958.091 1703.68 988.347 1675.13 1026.3 1675.74C1057.48 1676.24 1084.13 1696.27 1092.98 1723.29L1186.31 1724.78L1182.83 1519.29C1154.23 1510.9 1133.04 1485.71 1132.54 1456.26C1131.93 1420.42 1162.2 1391.87 1200.15 1392.48C1238.09 1393.08 1269.34 1422.62 1269.95 1458.46C1270.45 1487.91 1250.1 1512.44 1221.78 1519.91L1228.04 1888.91L1329.8 1890.55L1368.76 1891.17L1369.38 1927.97L1371.15 2032.19L1476.37 2033.88L1475.15 1962.34L1474.53 1925.55L1472.9 1829.51L1366.87 1827.81L1327.92 1827.18L1327.3 1790.4L1323.58 1571.19L1322.95 1534.4L1361.91 1535.02L1444.12 1536.34L1440.09 1298.63C1411.5 1290.24 1390.32 1265.05 1389.82 1235.6C1389.21 1199.77 1419.47 1171.2 1457.42 1171.81C1495.36 1172.42 1526.61 1201.97 1527.22 1237.8C1527.72 1267.25 1507.37 1291.77 1479.04 1299.25L1483.07 1536.96L1483.7 1573.76L1483.72 1575.3L1444.77 1574.68L1444.75 1573.13L1362.53 1571.82L1366.25 1791.02L1472.27 1792.72L1471.26 1732.93L1470.63 1696.14L1509.59 1696.76L1655.12 1699.1L1653.48 1602.44C1624.88 1594.05 1603.7 1568.86 1603.2 1539.41C1602.59 1503.57 1632.85 1475 1670.8 1475.61C1708.75 1476.22 1739.99 1505.77 1740.6 1541.61C1741.1 1571.06 1720.76 1595.59 1692.43 1603.06L1694.07 1699.72L1694.69 1736.26L1694.7 1736.51L1510.22 1733.55L1511.23 1793.34L1511.85 1830.13L1513.48 1926.18L1611.94 1927.75L1610.58 1847.55L1609.95 1810.75L1648.91 1811.37L1770.04 1813.31C1777.97 1786.57 1803.97 1767.38 1835.15 1767.88C1873.08 1768.49 1904.34 1798.03 1904.95 1833.87C1905.55 1869.71 1875.29 1898.27 1837.35 1897.66C1806.17 1897.16 1779.52 1877.13 1770.67 1850.11L1649.53 1848.17L1650.89 1928.38L1651.52 1965.17L1612.57 1964.54L1514.11 1962.96L1515.32 2034.5L1515.95 2071.3L1476.99 2070.67L1443.45 2070.13ZM573.121 775.341C850.573 721.937 1104.09 626.709 1340.84 483.638L1393.07 452.074L1446.52 485.155C1682.83 631.407 1960.58 730.467 2229.28 802.914L2300.07 821.987L2302.64 890.953C2313.57 1184.48 2283.44 1493.67 2148.61 1757.68C2045.47 1959.7 1893.79 2111.14 1696.83 2233.31C1624.09 2278.45 1547.69 2318.15 1469.58 2354.68L1429.6 2373.38L1387.67 2356.05C1188.4 2273.68 1007.52 2159.6 861.911 2004.61C561.083 1684.4 481.273 1266.62 498.375 858.697L501.296 789.174L573.121 775.341Z" fill="#D2990B"/>
</g>
<defs>
<clipPath id="clip0_10575_13257">
<rect width="2301" height="2301" fill="white" transform="translate(595.974 0.433594) rotate(15)"/>
</clipPath>
</defs>
</svg>
