<?xml version="1.0" encoding="UTF-8" standalone="no"?><svg width="631" height="708" viewBox="0 0 631 708" fill="none" xmlns="http://www.w3.org/2000/svg">
<path d="M393.73 138.568C403.65 153.215 418.696 155.886 433.738 158.558C443.753 160.336 453.766 162.114 462.263 167.426C483.535 180.735 489.427 198.497 479.936 220.658C478.246 224.609 475.36 228.086 471.758 231.135C487.724 240.844 497.088 260.347 498.802 282.248C497.301 284.869 495.69 287.321 493.98 289.646C502.864 294.973 513.224 302.654 521.706 313.041C524.11 316.561 526.789 316.965 529.565 315.231C530.646 314.559 537.209 309.536 545.104 303.494L545.107 303.492C557.453 294.045 573.055 282.105 576.054 280.4C580.229 278.023 597.815 280.064 608.932 285.246L605.171 308.495C603.029 307.323 601.315 306.138 600.88 305.209C600.668 304.755 600.943 303.744 601.522 302.415C598.297 300.434 583.164 291.257 581.052 292.137C580.413 292.403 576.798 296.078 571.679 301.282C557.868 315.324 533.107 340.496 526.295 339.882C521.164 339.419 507.28 336.896 494.378 331.987C494.272 332.463 494.205 332.72 494.203 332.729C494.246 332.779 511.475 352.91 525.638 371.637C537.11 365.09 584.875 348.533 593.834 347.342C595.188 347.162 596.919 347.245 598.86 347.507L596.481 362.216C595.147 361.889 593.917 361.708 592.869 361.735C589.006 361.835 573.366 370.616 557.253 379.663C543.76 387.238 529.935 395.001 522.413 398.01C515.951 400.593 511.159 396.323 505.752 390.922C495.206 380.399 472.983 359.086 466.971 353.32L465.713 352.112C465.543 351.949 465.451 351.861 465.445 351.854C451.384 359.114 435.817 362.603 420.919 362.657C420.8 362.837 420.682 363.017 420.561 363.196C417.262 367.523 414.381 371.404 411.822 374.905C397.475 392.408 378.797 408.293 362.676 419.269C367.047 425.199 371.059 431.168 373.835 436.387C376.839 442.035 388.229 476.357 384.339 489.858C382.778 495.282 373.709 518.137 373.709 518.137L373.67 518.118L373.709 518.141C373.709 518.141 368.815 541.63 361.72 539.617C354.848 537.667 346.822 526.276 347.641 523.35C348.741 519.445 352.041 510.268 354.271 509.044C354.614 508.856 355.313 508.941 356.248 509.22C358.585 506.824 374.54 490.122 372.744 482.582C368.046 462.913 355.835 446.234 344.671 434.385C349.308 449.788 353.792 471.557 350.192 475.27C342.52 483.216 313.446 502.857 296.607 504.326C284.375 505.398 271.488 504.913 271.488 504.913L271.49 504.907C270.815 504.883 247.539 503.981 248.298 496.757C249.051 489.646 258.911 479.803 261.929 480.111C265.958 480.521 275.555 482.201 277.149 484.194C277.499 484.633 277.423 485.879 277.091 487.558C278.913 488.172 292.117 492.475 298.278 490.367C316.054 484.274 333.042 470.348 334.117 467.104C335.506 462.919 311.881 440.799 295.17 425.817C292.656 424.905 290.391 423.969 288.447 423.063L288.398 423.177C283.122 418.619 278.277 412.498 274.268 404.288C274.268 404.288 270.301 403.213 264.328 401.374C227.107 393.227 205.063 377.341 192.624 361.019C192.611 361.019 192.599 361.022 192.587 361.022C192.552 360.96 192.517 360.897 192.482 360.834C191.885 360.045 191.31 359.256 190.757 358.466C189.31 356.402 188.316 354.181 187.726 351.883C186.626 349.709 185.565 347.531 184.577 345.383C175.914 326.54 169.005 301.185 169.005 301.185C164.134 307.448 152.144 310.208 140.946 308.621C131.567 312.249 128.175 314.824 122.888 318.835C120.685 320.507 118.153 322.429 114.72 324.78C105.811 330.882 91.4809 315.753 97.8679 305.724C99.8401 302.622 105.452 296.398 111.088 290.146C114.316 286.564 117.554 282.972 120.119 279.955C122.812 276.787 125.023 273.68 127.18 270.647C133.941 261.144 140.178 252.375 159.131 244.764C159.329 239.612 157.882 233.816 153.369 227.604C152.002 225.722 151.326 224.543 151.202 223.93C151 223.001 152.041 223.34 153.775 224.453C156.138 226.043 158.417 227.753 160.604 229.576L163.296 231.773C166.345 234.316 169.421 236.983 171.79 239.062C172.247 238.503 172.877 238.017 173.69 237.675C183.864 233.296 195.25 232.615 205.874 235.749C206.484 235.926 207.136 236.261 207.785 236.597C208.083 236.75 208.381 236.904 208.674 237.042C212.148 238.311 215.491 239.917 218.653 241.837C229.482 248.548 236.013 256.432 241.328 264.425C248.12 270.148 256.273 274.781 268.304 276.838C268.304 276.838 262.206 282.104 252.483 282.09C258.631 291.146 266.191 299.275 280.375 304.685C280.358 304.715 280.341 304.744 280.325 304.774C278.776 305.615 261.979 314.082 245.264 295.389C247.917 304.09 252.458 310.957 256.42 315.715C257.537 315.805 258.65 315.894 259.756 315.979C266.989 316.533 273.9 317.063 279.752 318.774L279.932 319.105C288.533 316.443 297.923 312.196 308.301 305.682C322.814 296.572 342.671 282.491 363.722 267.562L363.728 267.559C375.083 259.507 386.784 251.21 398.182 243.312C419.693 228.409 438.196 223.284 453.266 224.924C468.056 207.257 468.84 185.247 442.14 182.95C416.154 180.736 393.73 138.568 393.73 138.568ZM269.51 412.885C269.465 412.875 269.419 412.865 269.373 412.855C269.374 412.847 269.375 412.838 269.376 412.83C269.421 412.848 269.466 412.867 269.51 412.885ZM276.228 295.594L276.203 295.477L276.281 295.448C276.28 295.452 276.262 295.503 276.228 295.594ZM157.715 264.984C153.479 264.314 149.502 267.203 148.831 271.438C148.16 275.674 151.05 279.652 155.286 280.323C159.521 280.994 163.499 278.104 164.17 273.868C164.84 269.632 161.95 265.655 157.715 264.984Z" fill="#0B8AD2"/>
<path fill-rule="evenodd" clip-rule="evenodd" d="M331.526 700.878C358.938 686.968 385.771 671.899 411.361 654.86C480.656 608.721 534.356 552.071 571.459 477.093C612.659 393.853 627.752 299.06 630.091 206.21C630.311 204.042 630.424 201.842 630.424 199.616C630.424 198.279 630.383 196.952 630.303 195.636C630.496 182.734 630.452 169.88 630.207 157.11L629.721 131.735L605.187 125.132C512.063 100.047 415.952 65.2171 334.54 12.7705L316.129 0.907227L297.756 12.835C214.486 66.9015 125.66 103.455 28.7482 124.752L3.66026 130.269L2.23253 155.88C-6.13117 306.151 19.186 459.486 122.03 575.589C171.81 631.785 234.108 672.72 303.001 701.866L317.496 708L331.526 700.878ZM522.499 151.888C455.986 131.78 389.275 105.049 331.438 67.6395L316.045 57.6812L300.684 67.6937C242.177 105.834 180.39 133.592 114.066 152.092C126.903 163.884 134.949 180.81 134.949 199.616C134.949 235.247 106.065 264.131 70.4335 264.131C64.395 264.131 58.5503 263.302 53.0071 261.75C57.361 363.013 84.5825 461.662 153.766 540.078C183.428 573.697 218.405 600.809 256.906 622.47C254.797 616.094 253.655 609.277 253.655 602.194C253.655 566.563 282.54 537.678 318.171 537.678C353.802 537.678 382.686 566.563 382.686 602.194C382.686 606.911 382.18 611.51 381.219 615.94C386.082 612.91 390.9 609.806 395.666 606.62C453.601 567.89 498.497 520.337 529.518 457.399C559.088 397.416 572.573 330.285 577.035 263.175C573.421 263.804 569.703 264.131 565.908 264.131C530.277 264.131 501.392 235.247 501.392 199.616C501.392 180.702 509.532 163.688 522.499 151.888ZM238.177 442.195C238.176 406.564 209.292 377.679 173.661 377.679C138.03 377.679 109.146 406.564 109.145 442.195C109.145 477.826 138.03 506.71 173.661 506.71C209.292 506.71 238.177 477.826 238.177 442.195ZM522.044 442.195C522.044 406.564 493.159 377.679 457.528 377.679C421.897 377.679 393.013 406.564 393.013 442.195C393.013 477.826 421.897 506.71 457.528 506.71C493.159 506.71 522.044 477.826 522.044 442.195ZM382.686 199.616C382.686 163.985 353.802 135.1 318.171 135.1C282.54 135.1 253.655 163.985 253.655 199.616C253.655 235.247 282.54 264.131 318.171 264.131C353.802 264.131 382.686 235.247 382.686 199.616Z" fill="white"/>
</svg>
