<?xml version="1.0" encoding="UTF-8" standalone="no"?><svg width="790" height="888" viewBox="0 0 790 888" fill="none" xmlns="http://www.w3.org/2000/svg">
<path d="M345.615 370.133L345.65 370.295L345.699 370.161L345.724 370.092L345.615 370.133Z" fill="#F9F9F9"/>
<path fill-rule="evenodd" clip-rule="evenodd" d="M350.067 399.33L350.294 399.743C361.073 396.407 372.841 391.084 385.847 382.92C404.038 371.501 428.927 353.852 455.314 335.141C469.547 325.049 484.218 314.646 498.506 304.746C525.476 286.06 548.675 279.639 567.568 281.7C586.108 259.557 587.091 231.968 553.624 229.09C521.051 226.316 492.946 173.462 492.946 173.462C505.379 191.82 524.238 195.168 543.092 198.516C555.645 200.745 568.196 202.974 578.846 209.632C605.508 226.313 612.894 248.575 600.998 276.352C598.879 281.306 595.258 285.668 590.739 289.49C610.743 301.661 622.476 326.1 624.626 353.543C622.74 356.836 620.718 359.916 618.569 362.837C629.698 369.512 642.672 379.135 653.295 392.144C656.308 396.555 659.665 397.061 663.145 394.889C664.499 394.046 672.725 387.751 682.622 380.178C698.097 368.336 717.658 353.368 721.417 351.232C726.649 348.252 748.694 350.811 762.628 357.307L757.915 386.444C755.232 384.976 753.085 383.491 752.539 382.327C752.274 381.758 752.619 380.492 753.344 378.828C749.312 376.352 730.329 364.84 727.681 365.943C726.879 366.277 722.35 370.881 715.935 377.402C698.623 395.002 667.584 426.556 659.046 425.786C652.616 425.207 635.219 422.045 619.05 415.895C618.916 416.5 618.831 416.821 618.831 416.821C618.831 416.821 640.459 442.086 658.234 465.587C672.613 457.381 732.485 436.629 743.713 435.137C745.408 434.912 747.574 435.015 750.004 435.342L747.022 453.777C745.353 453.369 743.815 453.144 742.503 453.177C737.662 453.302 718.058 464.308 697.86 475.648C680.948 485.143 663.619 494.872 654.191 498.643C646.091 501.881 640.084 496.529 633.307 489.759C620.087 476.568 592.228 449.849 584.697 442.627L584.675 442.606C583.465 441.445 582.786 440.795 582.786 440.792C565.17 449.886 545.67 454.263 527.005 454.335C526.865 454.545 526.725 454.755 526.584 454.965C522.421 460.423 518.791 465.315 515.568 469.726C497.581 491.657 474.173 511.559 453.974 525.308C459.446 532.734 464.466 540.209 467.941 546.744C471.706 553.823 485.984 596.842 481.107 613.764C479.151 620.561 467.784 649.208 467.784 649.208L467.705 649.169L467.777 649.213C467.777 649.213 461.643 678.654 452.75 676.131C444.136 673.687 434.077 659.409 435.103 655.741C436.482 650.847 440.618 639.344 443.414 637.811C443.845 637.574 444.721 637.682 445.896 638.032C448.821 635.033 468.826 614.096 466.574 604.644C460.685 579.988 445.375 559.08 431.38 544.227C437.193 563.535 442.815 590.825 438.302 595.478C428.686 605.438 392.244 630.055 371.138 631.897C355.806 633.24 339.653 632.633 339.653 632.633L339.655 632.625C338.666 632.589 309.644 631.442 310.592 622.41C311.537 613.497 323.896 601.159 327.679 601.547C332.729 602.06 344.759 604.167 346.756 606.665C347.195 607.214 347.099 608.778 346.682 610.882C348.992 611.661 365.517 617.041 373.232 614.401C395.513 606.764 416.806 589.309 418.153 585.245C419.897 579.999 390.27 552.257 369.322 533.478C366.195 532.341 363.379 531.172 360.957 530.044L360.897 530.183C354.285 524.471 348.212 516.801 343.189 506.512C343.189 506.512 338.212 505.162 330.719 502.856C284.075 492.643 256.447 472.734 240.858 452.278C240.843 452.279 240.828 452.281 240.813 452.282C240.77 452.205 240.727 452.127 240.684 452.05C239.934 451.06 239.213 450.069 238.518 449.078C236.706 446.492 235.459 443.71 234.72 440.83C233.34 438.105 232.013 435.373 230.774 432.68C219.916 409.063 211.255 377.283 211.255 377.283C205.151 385.134 190.121 388.593 176.086 386.604C164.33 391.151 160.078 394.377 153.452 399.405C150.69 401.501 147.515 403.91 143.213 406.857C132.046 414.505 114.085 395.544 122.091 382.973C124.563 379.086 131.596 371.283 138.66 363.447C142.708 358.957 146.765 354.457 149.98 350.675C153.356 346.703 156.127 342.809 158.831 339.008C167.304 327.096 175.123 316.106 198.879 306.566C199.127 300.109 197.314 292.844 191.657 285.058C189.943 282.699 189.097 281.222 188.941 280.453C188.688 279.288 189.992 279.714 192.166 281.109C195.127 283.102 197.984 285.245 200.725 287.53L204.1 290.284C207.921 293.47 211.775 296.811 214.743 299.417C215.316 298.717 216.106 298.11 217.124 297.681C229.876 292.193 244.147 291.339 257.463 295.267C258.228 295.488 259.045 295.909 259.859 296.33C260.232 296.522 260.605 296.715 260.972 296.888C265.328 298.478 269.517 300.491 273.481 302.898C287.054 311.31 295.241 321.19 301.902 331.209C310.416 338.382 320.635 344.19 335.716 346.768C335.716 346.768 328.072 353.367 315.885 353.35C323.59 364.699 333.066 374.888 350.841 381.669L350.777 381.786C348.8 382.858 327.766 393.425 306.836 370.018C310.161 380.926 315.852 389.534 320.818 395.498C322.22 395.611 323.616 395.719 325.003 395.825C334.069 396.52 342.732 397.185 350.067 399.33ZM205.19 343.044C204.349 348.353 199.364 351.975 194.055 351.135C188.746 350.294 185.123 345.309 185.964 340C186.805 334.691 191.79 331.069 197.1 331.909C202.409 332.75 206.031 337.735 205.19 343.044Z" fill="#F9F9F9"/>
<path d="M337.029 517.218L337.025 517.254L337.223 517.297L337.029 517.218Z" fill="#F9F9F9"/>
<path d="M479.076 249.98C479.076 294.639 442.871 330.843 398.21 330.843C353.549 330.843 317.344 294.639 317.344 249.98C317.344 205.32 353.549 169.117 398.21 169.117C442.871 169.117 479.076 205.32 479.076 249.98Z" fill="#D2990B"/>
<path d="M653.74 554.025C653.74 598.685 617.535 634.888 572.874 634.888C528.213 634.888 492.008 598.685 492.008 554.025C492.008 509.366 528.213 473.162 572.874 473.162C617.535 473.162 653.74 509.366 653.74 554.025Z" fill="#D2990B"/>
<path d="M297.927 554.025C297.927 598.685 261.722 634.888 217.061 634.888C172.4 634.888 136.195 598.685 136.195 554.025C136.195 509.366 172.4 473.162 217.061 473.162C261.722 473.162 297.927 509.366 297.927 554.025Z" fill="#D2990B"/>
<path fill-rule="evenodd" clip-rule="evenodd" d="M397.382 887.181L414.968 878.254C449.326 860.82 482.96 841.933 515.036 820.577C601.891 762.746 669.199 691.742 715.706 597.766C767.368 493.391 786.281 374.522 789.2 258.098C789.467 255.428 789.603 252.72 789.603 249.98C789.603 248.354 789.555 246.741 789.46 245.139C789.705 228.918 789.651 212.758 789.343 196.703L788.733 164.899L757.981 156.622C641.257 125.18 520.788 81.5262 418.744 15.7903L395.668 0.920898L372.639 15.8712C268.266 83.6376 156.929 129.453 35.4571 156.146L4.01086 163.06L2.22152 195.161C-8.2618 383.509 23.4718 575.696 152.38 721.219C214.775 791.654 292.86 842.962 379.213 879.493L397.382 887.181ZM651.709 192.649C564.092 164.224 475.654 127.375 395.828 77.8357C316.619 127.821 233.582 166.093 145.748 193.696C159.863 208.253 168.551 228.102 168.551 249.98C168.551 294.639 132.346 330.843 87.6854 330.843C80.6776 330.843 73.878 329.951 67.3938 328.276C76.7903 460.006 115.428 581.942 200.806 678.324C235.317 717.283 275.658 750.013 320.578 777.28C318.473 770.074 317.344 762.452 317.344 754.566C317.344 709.906 353.549 673.703 398.21 673.703C442.871 673.703 479.076 709.906 479.076 754.566C479.076 758.962 478.725 763.276 478.05 767.482C478.427 767.232 478.804 766.981 479.181 766.73C557.961 714.277 616.945 651.477 657.724 569.074C693.551 496.692 712.365 414.917 720.272 330.026C716.505 330.564 712.653 330.843 708.737 330.843C664.076 330.843 627.871 294.639 627.871 249.98C627.871 227.572 636.985 207.294 651.709 192.649Z" fill="#D2990B"/>
</svg>
